<?xml version="1.0" encoding="utf-8"?>
<!-- Generator: Adobe Illustrator 25.1.0, SVG Export Plug-In . SVG Version: 6.00 Build 0)  -->
<svg version="1.1" id="Layer_1" xmlns="http://www.w3.org/2000/svg" xmlns:xlink="http://www.w3.org/1999/xlink" x="0px" y="0px"
	 viewBox="0 0 284.1 284" style="enable-background:new 0 0 284.1 284;" xml:space="preserve">
<style type="text/css">
	.st0{fill:#CE2527;}
</style>
<path class="st0" d="M142,278.2C66.9,278.2,5.8,217.1,5.8,142C5.8,66.9,66.9,5.8,142,5.8c75.1,0,136.2,61.1,136.2,136.2
	C278.2,217.1,217.1,278.2,142,278.2z M142,22.8C76.3,22.8,22.8,76.2,22.8,142c0,65.7,53.5,119.3,119.3,119.3
	c65.7,0,119.3-53.5,119.3-119.3C261.2,76.2,207.8,22.8,142,22.8L142,22.8z"/>
<path class="st0" d="M86,206.6c-2.2,0-4.4-0.8-6-2.4c-3.3-3.3-3.3-8.7,0-12L192.1,80c3.3-3.3,8.7-3.3,12,0c3.3,3.3,3.3,8.7,0,12
	L91.9,204.1C90.3,205.7,88.1,206.6,86,206.6L86,206.6z"/>
<path class="st0" d="M198.1,206.6c-2.2,0-4.4-0.8-6-2.4L79.9,91.9c-3.3-3.3-3.3-8.7,0-12s8.7-3.3,12,0l112.2,112.2
	c3.3,3.3,3.3,8.7,0,12C202.4,205.7,200.3,206.6,198.1,206.6L198.1,206.6z"/>
</svg>
