<?xml version="1.0" encoding="utf-8"?>
<!-- Generator: Adobe Illustrator 25.1.0, SVG Export Plug-In . SVG Version: 6.00 Build 0)  -->
<svg version="1.1" id="Layer_1" xmlns="http://www.w3.org/2000/svg" xmlns:xlink="http://www.w3.org/1999/xlink" x="0px" y="0px"
	 viewBox="0 0 284.1 284" style="enable-background:new 0 0 284.1 284;" xml:space="preserve">
<style type="text/css">
	.st0{fill:#6CBE45;}
</style>
<g>
	<path class="st0" d="M143.6,280.2C68.5,280.2,7.4,219.2,7.4,144C7.4,68.9,68.4,7.8,143.6,7.8c75.1,0,136.2,61.1,136.2,136.2
		C279.8,219.2,218.8,280.2,143.6,280.2z M143.6,24.8c-65.7,0-119.3,53.5-119.3,119.3c0,65.7,53.5,119.3,119.3,119.3
		c65.7,0,119.3-53.5,119.3-119.3S209.4,24.8,143.6,24.8z"/>
	<path class="st0" d="M122.8,196c-2.2,0-4.4-0.8-6-2.4l-45.3-45.3c-3.3-3.3-3.3-8.7,0-12s8.7-3.3,12,0l39.3,39.3l81-81
		c3.3-3.3,8.7-3.3,12,0c3.3,3.3,3.3,8.7,0,12l-87,87C127.1,195.2,125,196,122.8,196L122.8,196z"/>
</g>
</svg>
